<?xml version="1.0" encoding="UTF-8"?>
<svg width="1200pt" height="1200pt" version="1.1" viewBox="0 0 1200 1200" xmlns="http://www.w3.org/2000/svg">
 <path d="m593.48 798.99h-98.902v-98.898h98.902zm-98.902 0h-98.898v-98.898h98.898zm-98.898 0h-98.902v-98.898h98.902zm-98.902 0h-98.902v-98.898h98.902zm-98.902 0h-98.898v-98.898h98.898zm-98.898-98.898h-98.902v-98.902h98.902zm0-98.902h-98.902v-98.902h98.902zm0-98.902h-98.902v-98.902h98.902zm0-98.902h-98.902v-98.898h98.902zm0-98.898h-98.902v-98.902h98.902zm0-98.902h-98.902v-98.902h98.902zm98.898-98.902h-98.898v-98.898h98.898zm98.902 0h-98.902v-98.898h98.902zm98.902 0h-98.902v-98.898h98.902zm98.898 0h-98.898v-98.898h98.898zm98.902 0h-98.902v-98.898h98.902zm98.902 0h-98.902v-98.898h98.902zm98.898 0h-98.898v-98.898h98.898zm98.902 0h-98.902v-98.898h98.902zm98.902 0h-98.902v-98.898h98.902zm98.898 0h-98.898v-98.898h98.898zm98.902 98.902h-98.902v-98.902h98.902zm0 98.902h-98.902v-98.902h98.902zm0 98.898h-98.902v-98.898h98.902zm0 98.902h-98.902v-98.902h98.902zm0 98.902h-98.902v-98.902h98.902zm0 98.902h-98.902v-98.902h98.902zm0 98.898h-98.902v-98.898h98.902zm0 98.902h-98.902v-98.902h98.902zm0 98.902h-98.902v-98.902h98.902zm-296.7-98.902h-98.902v-98.902h98.902zm-98.902-98.902h-98.898v-98.898h98.898zm-98.898 0h-98.902v-98.898h98.902zm296.7 197.8h-98.902v-98.902h98.902zm98.898 98.898h-98.898v-98.898h98.898zm98.902 0h-98.902v-98.898h98.902zm0 98.902h-98.902v-98.902h98.902z" fill-rule="evenodd"/>
</svg>
