<?xml version="1.0" encoding="UTF-8"?>
<svg width="1200pt" height="1200pt" version="1.1" viewBox="0 0 1200 1200" xmlns="http://www.w3.org/2000/svg">
 <g>
  <path d="m301.21 60.152h600v120h-600z"/>
  <path d="m301.21 1020.2h600v120h-600z"/>
  <path d="m181.21 181.77h120v120h-120z"/>
  <path d="m421.73 660.59h120v120h-120z"/>
  <path d="m301.73 781.07h120v120h-120z"/>
  <path d="m421.73 421.07h120v120h-120z"/>
  <path d="m301.73 301.07h120v120h-120z"/>
  <path d="m541.73 540.59h120v120h-120z"/>
  <path d="m661.97 660.83h120v120h-120z"/>
  <path d="m781.73 781.07h120v120h-120z"/>
  <path d="m661.73 420.59h120v120h-120z"/>
  <path d="m781.73 301.07h120v120h-120z"/>
  <path d="m181.21 900.15h120v120h-120z"/>
  <path d="m901.21 900.15h120v120h-120z"/>
  <path d="m901.21 181.77h120v120h-120z"/>
  <path d="m1021.2 300.15h120v600.34h-120z"/>
  <path d="m181.21 300.15h-120c0.11328 200.11-0.11328 399.89 0 600h120c-0.11328-200.11 0.11328-399.89 0-600z"/>
 </g>
</svg>
